<?xml version="1.0" encoding="iso-8859-1"?>
<!-- Generator: Adobe Illustrator 16.0.0, SVG Export Plug-In . SVG Version: 6.00 Build 0)  -->
<!DOCTYPE svg PUBLIC "-//W3C//DTD SVG 1.1//EN" "http://www.w3.org/Graphics/SVG/1.1/DTD/svg11.dtd">
<svg version="1.1" id="Layer_1" xmlns="http://www.w3.org/2000/svg" xmlns:xlink="http://www.w3.org/1999/xlink" x="0px" y="0px"
	 width="612px" height="792px" viewBox="0 0 612 792" style="enable-background:new 0 0 612 792;" xml:space="preserve">
<g>
	<path style="fill-rule:evenodd;clip-rule:evenodd;fill:#54963D;" d="M306.701,436.191c-0.095,1.457-0.175,2.897-0.231,4.236
		c-0.181,4.252-0.128,7.479-0.102,9.507c0.027,2.026,0.031,2.854,0.407,3.423s1.125,0.881,2.897,1.209s4.568,0.671,6.398,0.546
		s2.693-0.719,2.356-1.445c-0.338-0.728-1.876-1.587-3.669-2.112c-1.793-0.523-3.841-0.713-4.926-1.338
		c-1.084-0.626-1.207-1.688-1.062-4.956c0.099-2.22,0.319-5.457,0.599-9.218C308.485,436.117,307.596,436.168,306.701,436.191
		L306.701,436.191z M303.63,436.175c0.101,1.454,0.185,2.894,0.248,4.23c0.197,4.251,0.157,7.479,0.138,9.506
		s-0.02,2.854-0.394,3.425c-0.374,0.57-1.122,0.886-2.893,1.22c-1.771,0.335-4.565,0.689-6.396,0.571
		c-1.83-0.118-2.696-0.709-2.362-1.437c0.334-0.729,1.87-1.595,3.661-2.126c1.791-0.531,3.838-0.729,4.92-1.358
		c1.083-0.629,1.201-1.692,1.043-4.959c-0.107-2.227-0.342-5.477-0.637-9.252C301.852,436.081,302.743,436.141,303.63,436.175
		L303.63,436.175z"/>
	<path style="fill-rule:evenodd;clip-rule:evenodd;fill:#B8140D;" d="M286.87,356.925c-4.274,1.039-8.302,2.459-11.874,4.262
		c-8.266,4.172-14.091,10.391-16.689,19.523s-1.968,21.176,4.054,31.292s17.437,18.303,28.655,21.924
		c11.218,3.622,22.24,2.677,32.041-1.023c9.801-3.699,18.382-10.155,23.499-17.673c5.116-7.519,6.77-16.099,6.967-23.459
		c0.196-7.361-1.063-13.501-4.251-18.814c-2.937-4.894-7.509-9.086-14.27-12.24c-1.539,0.248-3.282,0.479-5.343,0.45
		c-3.781-0.054-8.631-0.985-11.987-2.114c-3.357-1.129-5.221-2.455-6.271-2.629s-1.288,0.803-1.845,1.61
		c-0.558,0.807-1.434,1.444-2.251,2.207c-0.816,0.763-1.575,1.652-1.882,2.907c-0.308,1.256-0.164,2.878-0.74,2.776
		s-1.873-1.93-2.544-3.258c-0.671-1.328-0.718-2.158-0.721-2.743c-0.003-0.585,0.037-0.927-1.439-1.383
		c-1.476-0.457-4.467-1.028-8.527-1.357C290.021,357.066,288.458,356.98,286.87,356.925L286.87,356.925z M326.488,357.628
		c-1.537-0.427-3.131-0.812-4.771-1.149c0.204,0.077,0.41,0.15,0.617,0.22C323.668,357.145,325.041,357.426,326.488,357.628
		L326.488,357.628z"/>
	<path style="fill-rule:evenodd;clip-rule:evenodd;fill:#54963D;" d="M301.448,339.424c0.41,1.347,0.959,3.154,1.502,5.391
		s1.078,4.902,1.021,6.29c-0.056,1.388-0.704,1.498-2.393,0.88s-4.421-1.963-6.599-3.628c-2.178-1.665-3.802-3.65-4.955-5.66
		c-1.152-2.01-1.833-4.045-2.25-4.607c-0.418-0.563-0.573,0.349-0.587,1.958c-0.015,1.609,0.111,3.916,1,6.094
		c0.888,2.178,2.54,4.226,4.49,5.804c1.95,1.577,4.2,2.683,4.262,3.024c0.063,0.341-2.062-0.083-4.955-0.396
		c-2.893-0.313-6.555-0.517-9.875-0.207c-3.32,0.311-6.299,1.134-8.263,1.813c-1.964,0.679-2.912,1.215-2.194,1.274
		c0.717,0.059,3.1-0.357,6.855-0.522c3.755-0.165,8.883-0.079,12.943,0.25c4.06,0.329,7.051,0.9,8.527,1.356
		c1.476,0.457,1.436,0.798,1.439,1.383c0.003,0.585,0.049,1.415,0.721,2.743c0.671,1.329,1.967,3.156,2.543,3.258
		s0.433-1.52,0.74-2.776c0.307-1.255,1.066-2.144,1.883-2.907c0.816-0.763,1.692-1.399,2.25-2.207
		c0.557-0.807,0.794-1.784,1.845-1.61c1.051,0.174,2.914,1.5,6.271,2.629c3.356,1.129,8.207,2.061,11.987,2.115
		c3.78,0.053,6.492-0.771,8.842-0.961c2.349-0.189,4.335,0.255,4.622,0.117s-1.126-0.861-3.554-1.336
		c-2.428-0.475-5.871-0.704-8.937-0.944c-3.066-0.24-5.756-0.492-8.298-1.344s-4.938-2.304-5.771-3.388
		c-0.834-1.083-0.104-1.799,1.359-2.769s3.663-2.194,6.787-3.082s7.173-1.44,9.794-1.58c2.622-0.139,3.816,0.136,3.831-0.054
		c0.014-0.19-1.151-0.843-3.078-1.224c-1.926-0.381-4.612-0.49-7.115-0.264c-2.502,0.226-4.82,0.787-6.909,1.463
		c-2.088,0.676-3.945,1.467-4.157,1.141c-0.213-0.326,1.22-1.77,3.019-3.026s3.963-2.326,6.668-3.035s5.952-1.059,6.482-1.344
		c0.53-0.285-1.655-0.505-4.173-0.531c-2.518-0.027-5.367,0.14-7.934,1.106c-2.565,0.965-4.848,2.729-6.695,4.566
		s-3.262,3.749-4.101,4.003c-0.838,0.255-1.099-1.146-1.022-2.856c0.076-1.71,0.491-3.729,0.191-5.088
		c-0.301-1.359-1.315-2.058-2.936-2.687c-1.622-0.628-3.848-1.185-4.827-1.021C300.77,337.193,301.039,338.078,301.448,339.424
		L301.448,339.424z"/>
	<path style="fill-rule:evenodd;clip-rule:evenodd;fill:#630D0D;" d="M310.993,388.836c0.404-0.047,0.802,0.013,1.174,0.162
		c0.373,0.148,0.72,0.385,1.024,0.692c0.305,0.307,0.565,0.684,0.765,1.113c0.2,0.43,0.339,0.911,0.398,1.426
		c0.06,0.516,0.034,1.016-0.063,1.479c-0.097,0.463-0.265,0.891-0.491,1.258c-0.226,0.368-0.51,0.678-0.839,0.907
		c-0.329,0.229-0.703,0.378-1.107,0.425s-0.802-0.013-1.174-0.161c-0.373-0.148-0.721-0.385-1.024-0.692
		c-0.304-0.307-0.565-0.685-0.765-1.114c-0.2-0.429-0.339-0.911-0.398-1.426s-0.034-1.016,0.063-1.479
		c0.097-0.464,0.265-0.89,0.491-1.259c0.226-0.368,0.511-0.678,0.839-0.907C310.215,389.032,310.588,388.883,310.993,388.836
		L310.993,388.836z M298.479,389.241c0.405-0.047,0.802,0.013,1.175,0.161c0.373,0.148,0.72,0.385,1.024,0.692
		s0.565,0.684,0.765,1.113c0.2,0.429,0.339,0.911,0.398,1.426c0.06,0.516,0.034,1.016-0.063,1.479
		c-0.097,0.463-0.265,0.891-0.491,1.258c-0.226,0.368-0.51,0.678-0.839,0.907c-0.329,0.229-0.702,0.379-1.107,0.426
		c-0.404,0.046-0.802-0.014-1.174-0.162s-0.72-0.385-1.024-0.691c-0.304-0.307-0.565-0.685-0.765-1.114
		c-0.2-0.429-0.339-0.911-0.398-1.426c-0.059-0.515-0.034-1.016,0.063-1.479c0.097-0.464,0.265-0.891,0.491-1.259
		c0.226-0.368,0.51-0.678,0.839-0.907C297.701,389.437,298.075,389.288,298.479,389.241L298.479,389.241z"/>
	<path style="fill-rule:evenodd;clip-rule:evenodd;fill:#630D0D;" d="M293.642,386.533c0.515-0.608,1.478-1.408,2.472-1.814
		c0.994-0.407,2.018-0.421,2.919-0.143c0.901,0.278,1.68,0.848,1.763,1.011c0.082,0.163-0.532-0.081-1.269-0.229
		c-0.737-0.149-1.597-0.203-2.39-0.092c-0.792,0.111-1.517,0.385-2.196,0.864c-0.68,0.479-1.313,1.163-1.598,1.296
		C293.06,387.559,293.127,387.141,293.642,386.533L293.642,386.533z M314.559,385.438c-0.575-0.551-1.617-1.246-2.647-1.546
		c-1.03-0.301-2.051-0.208-2.918,0.162c-0.867,0.371-1.583,1.019-1.647,1.19c-0.065,0.171,0.521-0.135,1.237-0.36
		c0.718-0.225,1.567-0.368,2.367-0.34c0.799,0.027,1.549,0.224,2.274,0.629s1.428,1.019,1.724,1.122
		C315.245,386.397,315.135,385.989,314.559,385.438L314.559,385.438z"/>
	<path style="fill-rule:evenodd;clip-rule:evenodd;fill:#630D0D;" d="M294.834,402.833c1.742,0.679,4.792,1.781,8.079,2.076
		c3.287,0.296,6.81-0.217,10.018-1.506s6.101-3.355,7.548-4.162c1.446-0.807,1.446-0.354,0.935,0.315
		c-0.512,0.669-1.535,1.555-2.578,2.381s-2.105,1.594-3.169,2.962c-1.063,1.368-2.125,3.336-3.434,5.186
		c-1.309,1.851-2.863,3.582-4.557,4.202c-1.693,0.62-3.523,0.128-4.959-1.496c-1.437-1.623-2.48-4.379-3.937-6.042
		c-1.456-1.663-3.326-2.233-4.772-2.863s-2.47-1.318-2.696-1.702c-0.226-0.384,0.344-0.463,0.846-0.374
		S293.092,402.154,294.834,402.833L294.834,402.833z"/>
	<path style="fill-rule:evenodd;clip-rule:evenodd;fill:#99140D;" d="M344.577,375.801c1.221,2.46,3.661,9.782,3.563,17.536
		s-2.735,15.941-7.272,22.269c-4.536,6.328-10.972,10.795-17.338,13.481c-6.367,2.687-12.665,3.592-18.215,3.65
		c-5.55,0.06-10.352-0.728-14.751-2.43c-4.398-1.703-8.394-4.32-8.629-5.348c-0.237-1.028,3.286-0.466,9.043,0.017
		c5.756,0.482,13.747,0.884,21.423-0.745c7.676-1.629,15.036-5.29,20.084-10.751c5.048-5.462,7.784-12.725,9.211-18.914
		c1.427-6.19,1.545-11.307,1.604-15.065C343.357,375.742,343.357,373.341,344.577,375.801L344.577,375.801z"/>
	<path style="fill-rule:evenodd;clip-rule:evenodd;fill:#DE5E42;" d="M280.103,362.97c-2.952,1.122-8.817,4.665-12.635,8.64
		s-5.589,8.383-5.963,12.635c-0.375,4.25,0.649,8.345,2.499,7.912s4.526-5.393,7.853-10.766c3.326-5.373,7.302-11.159,9.27-14.701
		C283.094,363.147,283.055,361.848,280.103,362.97L280.103,362.97z"/>
	<path style="fill-rule:evenodd;clip-rule:evenodd;fill:#54963D;" d="M256.986,394.745c-0.601,1.448-1.495,3.27-3.098,5.342
		c-2.353,3.041-6.229,6.623-6.81,9.103c-0.581,2.48,2.136,3.857,5.333,4.979c3.198,1.122,6.878,1.987,8.669,2.873
		s1.692,1.791,1.23,2.579c-0.462,0.787-1.289,1.456-2.844,2.096s-3.837,1.25-4.291,1.811c-0.453,0.561,0.925,1.072,2.923,0.807
		s4.615-1.309,6.111-2.646c1.496-1.339,1.87-2.973,1.341-4.503s-1.959-2.959-4.153-4.12c-2.195-1.16-5.153-2.056-7.045-2.856
		c-1.893-0.802-2.72-1.511-2.149-2.771c0.571-1.259,2.539-3.069,4.527-4.507c0.488-0.353,0.978-0.683,1.452-0.999
		C257.564,399.538,257.172,397.125,256.986,394.745L256.986,394.745z"/>
	<path style="fill-rule:evenodd;clip-rule:evenodd;fill:#54963D;" d="M353.416,394.035c1.282,1.893,3.144,4.359,4.453,6.052
		c1.978,2.557,6.229,6.623,6.81,9.103c0.581,2.48-2.135,3.857-5.333,4.979s-6.879,1.987-8.67,2.873s-1.692,1.791-1.23,2.579
		c0.463,0.787,1.29,1.456,2.844,2.096c1.556,0.64,3.838,1.25,4.291,1.811s-0.925,1.072-2.923,0.807
		c-1.997-0.266-4.615-1.309-6.11-2.646c-1.496-1.339-1.87-2.973-1.342-4.503s1.959-2.959,4.153-4.12
		c2.194-1.16,5.152-2.056,7.045-2.856c1.893-0.802,2.72-1.511,2.148-2.771c-0.57-1.259-3.288-3.611-4.526-4.507
		c-0.985-0.712-2.088-0.91-2.736-1.121C352.896,399.165,353.246,396.546,353.416,394.035L353.416,394.035z"/>
	<path style="fill-rule:evenodd;clip-rule:evenodd;fill:#DE5E42;" d="M264.668,400.182c0.246,1.417,0.345,3.129,0.817,4.752
		c0.472,1.624,1.319,3.159,0.817,3.632s-2.352-0.118-3.582-1.525c-1.23-1.407-1.84-3.631-1.584-5.521s1.378-3.444,2.135-3.661
		C264.029,397.643,264.423,398.764,264.668,400.182L264.668,400.182z M268.369,409.008c0.423,1.446,1.505,3.69,2.735,4.605
		s2.608,0.502,2.874-0.384s-0.581-2.243-1.692-3.483s-2.49-2.361-3.297-2.599C268.182,406.912,267.945,407.562,268.369,409.008
		L268.369,409.008z M269.362,393.45c-0.817,1.82-1.899,5.146-1.24,7.813c0.66,2.667,3.061,4.674,4.339,4.596
		c1.28-0.079,1.437-2.244,1.073-4.074s-1.25-3.326-1.712-5.068c-0.462-1.741-0.502-3.729-0.797-4.565S270.179,391.63,269.362,393.45
		L269.362,393.45z"/>
</g>
</svg>
